:SAMPLES-PER-SECOND 30
:FULLY-SPECIFIED
:DEGREES
481
root  -20.4762 40.567 25.911 -176.035 25.886 176.325
RightUpLeg  -15.3625 -16.7221 -9.85996
RightLeg  21.1192 0.0559212 -0.183669
RightFoot  6.10659 -3.07349 20.0834
RightToes  -1.74624e-010 0 -3.6325e-017
Spine  9.18041 0.669392 -0.233724
Spine1  16.2801 1.11039 -1.18144
HEad  -18.7437 12.737 -3.24303
LeftShoulder1  1.04263 -1.87262 -12.2983
LeftArm  15.0289 5.05431 -62.6261
LeftForeArm  88.9769 -78.1939 -110.755
LeftHand  -0.820463 1.37664 23.5835
RightShoulder  0.711846 0.4596 10.8027
RightArm  23.3793 4.40102 64.7262
RightForeArm  100.59 68.0372 147.9
RightHand  -1.28143 1.53326 -21.4497
LeftUpLeg  -11.5226 1.3513 1.00937
LeftLeg  13.2253 -9.75591 -2.62373
LeftFoot  -3.76224 1.35574 -20.1271
LeftToes  -5.82109e-011 1.10366e-010 -8.03124e-011
482
root  -20.2864 40.4425 25.7894 -175.889 28.4853 176.951
RightUpLeg  -16.7968 -20.0628 -10.1868
RightLeg  23.8113 8.38457 3.87122
RightFoot  6.80657 -4.57728 28.4252
RightToes  -1.74624e-010 0 -3.6325e-017
Spine  9.54127 0.609548 -0.254602
Spine1  15.5997 1.20834 -1.77098
HEad  -18.2313 14.8681 -4.0749
LeftShoulder1  0.99475 -1.68229 -12.0622
LeftArm  15.2662 4.62321 -61.7149
LeftForeArm  88.1721 -78.043 -111.701
LeftHand  -0.70064 1.8143 22.6073
RightShoulder  0.734467 0.623718 10.6143
RightArm  23.493 3.21415 65.0344
RightForeArm  100.786 67.8016 148.292
RightHand  -1.46441 2.02889 -22.8528
LeftUpLeg  -12.9361 1.26522 -0.657136
LeftLeg  15.6466 -7.2657 -2.21409
LeftFoot  -3.13179 0.929057 -12.47
LeftToes  -5.82109e-011 1.10366e-010 -8.03124e-011
483
root  -20.0554 39.9808 25.6749 -176.671 31.6659 177.929
RightUpLeg  -18.0713 -20.3283 -11.1417
RightLeg  29.1593 16.6641 9.66142
RightFoot  6.26627 -5.90066 37.1792
RightToes  -1.74624e-010 0 -3.6325e-017
Spine  10.1848 0.781807 -0.535253
Spine1  15.563 1.53126 -2.43686
HEad  -18.0777 17.1064 -4.86984
LeftShoulder1  0.927942 -1.45305 -11.5509
LeftArm  15.3056 3.67742 -60.8198
LeftForeArm  85.5958 -78.0716 -110.542
LeftHand  -0.612442 2.10309 21.5004
RightShoulder  0.730978 0.72736 10.0319
RightArm  23.4622 2.56863 65.4201
RightForeArm  98.5765 67.6323 148.378
RightHand  -1.53708 2.04852 -23.8946
LeftUpLeg  -13.5866 1.2752 -0.755555
LeftLeg  20.9368 -1.73245 -0.398182
LeftFoot  -5.50147 0.287506 -4.88888
LeftToes  -5.82109e-011 1.10366e-010 -8.03124e-011
484
root  -19.7365 39.384 25.5962 -178.689 35.0202 178.325
RightUpLeg  -18.77 -17.1311 -13.0808
RightLeg  35.14 19.8759 14.1638
RightFoot  4.69732 -5.76076 39.5242
RightToes  -1.74624e-010 0 -3.6325e-017
Spine  10.804 1.24466 -2.26727
Spine1  16.7072 1.64594 -2.24801
HEad  -18.6405 19.6517 -5.85251
LeftShoulder1  0.86803 -1.26571 -10.975
LeftArm  15.2241 2.17994 -59.6959
LeftForeArm  80.4989 -78.3225 -106.257
LeftHand  -0.509783 2.48725 20.1794
RightShoulder  0.698333 0.769449 8.97968
RightArm  23.1531 2.7601 66.5451
RightForeArm  94.2215 68.2048 147.095
RightHand  -1.41014 1.44974 -23.8165
LeftUpLeg  -12.2987 1.99172 -0.0176696
LeftLeg  25.6127 1.60506 1.16775
LeftFoot  -10.6992 0.0660641 -3.21283
LeftToes  -5.82109e-011 1.10366e-010 -8.03124e-011
485
root  -19.3572 38.9618 25.5377 178.939 37.0596 177.597
RightUpLeg  -18.5475 -14.1563 -15.9176
RightLeg  37.8671 15.281 12.1603
RightFoot  2.83717 -4.55226 35.6062
RightToes  -1.74624e-010 0 -3.6325e-017
Spine  10.7362 1.43071 -5.00732
Spine1  18.4919 0.999083 -1.13443
HEad  -19.3784 22.1781 -6.7929
LeftShoulder1  0.849808 -1.2791 -10.4968
LeftArm  15.1737 0.420821 -58.4387
LeftForeArm  72.1759 -78.6375 -98.4031
LeftHand  -0.327733 3.35149 18.2262
RightShoulder  0.652771 0.710916 8.01702
RightArm  22.4749 2.50811 68.237
RightForeArm  90.8287 69.3323 144.813
RightHand  -1.36199 1.26264 -23.6597
LeftUpLeg  -10.1443 3.14329 0.104462
LeftLeg  27.4585 1.5343 1.23309
LeftFoot  -14.9369 -0.0432599 -4.30887
LeftToes  -5.82109e-011 1.10366e-010 -8.03124e-011
486
root  -18.9749 38.8446 25.4498 177.649 37.3337 176.606
RightUpLeg  -17.4984 -13.4833 -18.5863
RightLeg  36.5127 5.48575 4.17902
RightFoot  2.72919 -3.68796 29.5324
RightToes  -1.74624e-010 0 -3.6325e-017
Spine  10.0632 0.934268 -6.6103
Spine1  19.5435 -0.0400006 -0.270969
HEad  -19.2774 24.0322 -7.28806
LeftShoulder1  0.856782 -1.41852 -10.0917
LeftArm  15.3656 -0.855813 -57.9242
LeftForeArm  61.6237 -78.7621 -87.3665
LeftHand  -0.195483 4.05972 16.5532
RightShoulder  0.614857 0.538731 7.70922
RightArm  21.3772 -0.0816563 69.3599
RightForeArm  92.1097 70.1526 143.298
RightHand  -1.68091 2.379 -24.9345
LeftUpLeg  -8.8152 2.99929 -0.4942
LeftLeg  27.3058 1.93521 1.44795
LeftFoot  -15.7324 -0.0783466 -4.48586
LeftToes  -5.82109e-011 1.10366e-010 -8.03124e-011
487
root  -18.5637 38.9165 25.3252 177.639 37.6655 176.37
RightUpLeg  -16.2869 -12.6356 -19.752
RightLeg  33.1815 -2.82651 -2.24208
RightFoot  5.02652 -3.58054 24.7686
RightToes  -1.74624e-010 0 -3.6325e-017
Spine  9.46631 0.28454 -5.91352
Spine1  19.2405 -0.402986 -0.766783
HEad  -18.0764 25.2994 -7.53879
LeftShoulder1  0.8191 -1.25168 -9.88837
LeftArm  15.5938 -0.569733 -58.6273
LeftForeArm  52.9542 -78.5604 -76.8589
LeftHand  -0.285398 3.5448 17.304
RightShoulder  0.608139 0.434867 7.96738
RightArm  19.9697 -5.04406 69.1091
RightForeArm  97.1324 70.6286 142.786
RightHand  -2.20979 3.94246 -27.2635
LeftUpLeg  -8.51118 2.28652 -0.602224
LeftLeg  27.5782 4.00506 2.63899
LeftFoot  -14.6118 -0.0425546 -4.55167
LeftToes  -5.82109e-011 1.10366e-010 -8.03124e-011
